<svg width="457" height="368" viewBox="0 0 457 368" fill="none" xmlns="http://www.w3.org/2000/svg">
<path opacity="0.2" d="M429.97 94.2402L251.899 84.0905C248.263 83.8767 245.105 86.6896 244.891 90.3415L231.517 324.968C231.303 328.603 234.116 331.762 237.768 331.976L415.839 342.109C419.475 342.323 422.633 339.51 422.847 335.858L436.204 101.231C436.418 97.596 433.605 94.4376 429.97 94.2402Z" fill="#3A7EC1"/>
<path d="M424.081 358.805C423.818 358.805 423.554 358.789 423.291 358.756L245.927 340.003C241.798 339.559 238.788 335.858 239.232 331.729L263.924 98.0236C264.138 96.0332 265.108 94.2402 266.687 92.9735C268.266 91.7069 270.208 91.1311 272.214 91.3285L449.578 110.081C453.707 110.526 456.718 114.227 456.274 118.356L431.566 352.061C431.154 355.927 427.881 358.805 424.081 358.805ZM271.408 93.0722C270.109 93.0722 268.842 93.5164 267.806 94.3553C266.605 95.3259 265.865 96.6912 265.7 98.2046L240.992 331.926C240.828 333.44 241.272 334.937 242.243 336.137C243.213 337.338 244.578 338.078 246.092 338.243L423.456 356.996C426.598 357.325 429.444 355.038 429.773 351.88L454.48 118.175C454.809 115.016 452.523 112.187 449.365 111.858L272.001 93.1051C271.803 93.0886 271.606 93.0722 271.408 93.0722Z" fill="white"/>
<path d="M411.365 338.309L233.294 328.176C229.658 327.962 226.845 324.82 227.043 321.168L240.4 86.5416C240.614 82.8897 243.756 80.0932 247.408 80.2906L425.479 90.4402C429.115 90.6541 431.927 93.796 431.73 97.4479L418.373 332.074C418.159 335.693 415.017 338.506 411.365 338.309Z" fill="#3B82F4"/>
<path d="M401.676 155.648L263.66 147.785C261.308 147.653 259.482 145.613 259.63 143.261C259.762 140.909 261.802 139.099 264.154 139.231L402.169 147.094C404.522 147.226 406.348 149.265 406.2 151.618C406.068 153.97 404.028 155.78 401.676 155.648Z" fill="#B3CEF6"/>
<path d="M399.916 186.574L261.9 178.711C259.548 178.58 257.722 176.54 257.87 174.187C258.002 171.835 260.042 170.026 262.394 170.157L400.409 178.02C402.762 178.152 404.588 180.192 404.44 182.544C404.308 184.896 402.268 186.706 399.916 186.574Z" fill="#B3CEF6"/>
<path d="M398.156 217.5L260.14 209.637C257.788 209.506 255.962 207.466 256.11 205.113C256.241 202.761 258.281 200.935 260.634 201.083L398.649 208.946C401.001 209.078 402.827 211.118 402.679 213.47C402.548 215.822 400.508 217.632 398.156 217.5Z" fill="#B3CEF6"/>
<path d="M396.395 248.426L258.38 240.563C256.028 240.431 254.202 238.391 254.35 236.039C254.481 233.687 256.521 231.861 258.873 232.009L396.889 239.872C399.241 240.004 401.067 242.043 400.919 244.396C400.788 246.732 398.748 248.558 396.395 248.426Z" fill="#B3CEF6"/>
<path d="M394.635 279.352L256.62 271.489C254.267 271.358 252.442 269.318 252.59 266.965C252.721 264.613 254.761 262.787 257.113 262.935L395.129 270.798C397.481 270.93 399.307 272.97 399.159 275.322C399.027 277.658 396.988 279.484 394.635 279.352Z" fill="#B3CEF6"/>
<path d="M392.875 310.261L254.86 302.398C252.507 302.267 250.681 300.227 250.829 297.875C250.961 295.522 253.001 293.696 255.353 293.844L393.369 301.707C395.721 301.839 397.547 303.879 397.399 306.231C397.267 308.584 395.228 310.393 392.875 310.261Z" fill="#B3CEF6"/>
<path d="M403.436 124.738L265.421 116.875C263.068 116.744 261.242 114.704 261.39 112.351C261.522 109.999 263.562 108.19 265.914 108.321L403.93 116.184C406.282 116.316 408.108 118.356 407.96 120.708C407.828 123.044 405.788 124.87 403.436 124.738Z" fill="#B3CEF6"/>
<path d="M286.082 236.96L163.398 284.452C154.268 287.988 149.728 298.253 153.264 307.366C156.801 316.496 167.066 321.036 176.179 317.5L291.79 272.739C295.705 271.226 297.646 266.834 296.133 262.935L286.082 236.96Z" fill="#C1822F"/>
<path opacity="0.2" d="M359.202 61.916L181.46 76.8033C177.824 77.0994 175.094 80.34 175.406 83.9755L195.031 318.174C195.327 321.81 198.568 324.54 202.203 324.228L379.946 309.34C383.581 309.028 386.312 305.804 385.999 302.168L366.374 67.9696C366.062 64.3506 362.837 61.6199 359.202 61.916Z" fill="#3A7EC1"/>
<path d="M374.764 304.258L197.022 319.145C193.386 319.457 190.162 316.727 189.849 313.091L170.224 78.8926C169.928 75.2571 172.643 72.0329 176.278 71.7204L354.02 56.8331C357.656 56.537 360.88 59.2513 361.193 62.8867L380.817 297.085C381.13 300.737 378.399 303.961 374.764 304.258Z" fill="white"/>
<path d="M339.594 124.771L201.825 136.319C199.473 136.517 197.4 134.757 197.202 132.404C197.005 130.052 198.765 127.979 201.118 127.782L338.886 116.234C341.239 116.036 343.311 117.797 343.509 120.149C343.706 122.485 341.946 124.574 339.594 124.771Z" fill="#E4ECF9"/>
<path d="M342.176 155.632L204.408 167.18C202.055 167.377 199.983 165.617 199.785 163.265C199.588 160.912 201.348 158.84 203.7 158.642L341.469 147.094C343.821 146.897 345.894 148.657 346.091 151.009C346.289 153.345 344.529 155.434 342.176 155.632Z" fill="#E4ECF9"/>
<path d="M344.759 186.492L206.99 198.023C204.638 198.221 202.565 196.461 202.368 194.108C202.17 191.756 203.931 189.683 206.283 189.486L344.052 177.938C346.404 177.741 348.477 179.501 348.674 181.853C348.871 184.222 347.111 186.295 344.759 186.492Z" fill="#E4ECF9"/>
<path d="M347.358 217.369L209.589 228.9C207.237 229.097 205.164 227.337 204.967 224.985C204.769 222.633 206.53 220.56 208.882 220.362L346.651 208.831C349.003 208.634 351.076 210.394 351.273 212.746C351.454 215.082 349.694 217.171 347.358 217.369Z" fill="#E4ECF9"/>
<path d="M349.941 248.229L212.172 259.76C209.82 259.958 207.747 258.198 207.55 255.845C207.352 253.493 209.112 251.42 211.465 251.223L349.233 239.691C351.586 239.494 353.658 241.254 353.856 243.606C354.053 245.942 352.293 248.032 349.941 248.229Z" fill="#E4ECF9"/>
<path d="M352.523 279.089L214.755 290.621C212.402 290.818 210.33 289.058 210.132 286.706C209.935 284.353 211.695 282.281 214.047 282.083L351.816 270.552C354.168 270.354 356.241 272.114 356.438 274.467C356.636 276.803 354.876 278.892 352.523 279.089Z" fill="#E4ECF9"/>
<path d="M337.011 93.9115L199.242 105.459C196.89 105.657 194.817 103.897 194.62 101.544C194.422 99.192 196.183 97.1193 198.535 96.9219L336.304 85.374C338.656 85.1766 340.729 86.9368 340.926 89.2891C341.124 91.625 339.363 93.7142 337.011 93.9115Z" fill="#52D1BD"/>
<path opacity="0.2" d="M274.633 15.6092L303.469 90.1277C305.526 95.4575 302.877 101.445 297.564 103.502L281.18 109.851L325.989 225.626C327.898 230.561 325.447 236.105 320.512 238.013L187.859 289.354L186.658 275.453L83.2203 97.6289C81.4602 93.0723 81.7069 88.2195 83.5329 84.0741C85.3753 79.9287 88.7804 76.4742 93.3535 74.7141L261.275 9.72011C266.588 7.63096 272.576 10.2794 274.633 15.6092Z" fill="#3A7EC1"/>
<path d="M311.464 216.875L266.654 101.1L283.038 94.7503C288.368 92.6941 291.017 86.7063 288.944 81.3765L260.091 6.85798C258.034 1.52818 252.047 -1.10382 246.717 0.952427L78.7953 65.9464C74.2386 67.7065 70.817 71.161 68.9911 75.3064C67.1487 79.4683 66.9184 84.3046 68.6785 88.8612L85.145 131.417L106.217 185.85L146.849 290.834L153.248 307.367C151.488 302.793 151.735 297.957 153.561 293.812C155.386 289.683 158.775 286.261 163.299 284.485L305.97 229.262C310.905 227.337 313.372 221.81 311.464 216.875Z" fill="#F9C067"/>
<path d="M79.5191 324.425C73.5971 322.566 70.2742 316.233 72.1495 310.295L87.0203 262.902C89.7346 254.266 98.963 249.446 107.599 252.161C116.236 254.875 121.055 264.103 118.341 272.739L114.36 285.439C114.196 285.949 113.653 286.228 113.143 286.08C112.633 285.916 112.353 285.373 112.501 284.863L116.482 272.164C118.868 264.547 114.623 256.405 107.007 254.019C99.3907 251.634 91.248 255.878 88.8627 263.495L73.9919 310.887C72.4456 315.789 75.1928 321.037 80.0949 322.583C84.997 324.129 90.2445 321.382 91.7908 316.48L107.073 267.788C107.764 265.584 106.53 263.248 104.342 262.557C102.138 261.866 99.802 263.1 99.1111 265.288L86.4117 305.788C86.2472 306.297 85.7043 306.577 85.1944 306.429C84.6844 306.265 84.4048 305.722 84.5528 305.212L97.2522 264.712C98.2557 261.488 101.71 259.695 104.918 260.698C108.126 261.701 109.935 265.156 108.932 268.364L93.6497 317.056C91.7744 322.978 85.4411 326.284 79.5191 324.425Z" fill="white"/>
<path d="M165.043 160.731C162.345 163.298 159.121 165.403 155.436 166.834L106.25 185.867L85.178 131.434L134.38 112.385C141.898 109.473 149.876 109.884 156.719 112.911C159.45 114.112 162.016 115.741 164.27 117.747C167.658 120.741 170.405 124.558 172.149 129.065C176.508 140.416 173.317 152.835 165.043 160.731Z" fill="#E5A755"/>
<path d="M174.057 119.425C178.449 130.776 175.275 143.179 166.984 151.092C164.286 153.658 161.062 155.747 157.377 157.178L100.394 179.237C96.3311 180.817 94.3077 185.373 95.8869 189.436L93.0411 182.083L48.4287 199.356L35.2687 165.403C38.1145 162.475 41.6184 160.106 45.6651 158.527L78.927 145.647L74.798 135.003C73.2188 130.94 75.2422 126.367 79.3053 124.788L136.288 102.729C143.806 99.8169 151.784 100.228 158.627 103.255C161.358 104.456 163.908 106.084 166.178 108.091C169.566 111.085 172.314 114.918 174.057 119.425Z" fill="#3B82F4"/>
<path d="M78.927 145.663L97.1536 192.743C98.7328 196.806 96.7094 201.379 92.6463 202.958L66.754 212.976C62.6908 214.539 58.5125 215.148 54.4329 214.901C43.4114 214.227 33.2453 207.268 29.0012 196.296C26.0896 188.779 26.5008 180.8 29.5276 173.957C30.9259 170.815 32.867 167.903 35.2851 165.403C38.131 162.475 41.6348 160.106 45.6815 158.527L78.927 145.663Z" fill="#2670DB"/>
<path d="M129.626 133.638L124.378 120.067L110.379 125.495L115.627 139.05L110.61 141.008L130.103 155.665L134.643 131.697L129.626 133.638Z" fill="white"/>
<path d="M100.049 137.34C99.6869 137.34 99.325 137.109 99.1934 136.747L95.1632 126.334C94.9822 125.857 95.2125 125.331 95.6896 125.15L106.053 121.136C106.53 120.955 107.057 121.186 107.237 121.663C107.418 122.14 107.188 122.666 106.711 122.847L97.203 126.532L100.904 136.089C101.085 136.566 100.855 137.093 100.378 137.274C100.263 137.323 100.148 137.34 100.049 137.34Z" fill="white"/>
<path d="M141.634 157.178C141.272 157.178 140.911 156.948 140.779 156.586C140.598 156.109 140.828 155.583 141.305 155.402L150.287 151.931L146.454 142.028C146.273 141.551 146.504 141.024 146.981 140.843C147.458 140.662 147.984 140.893 148.165 141.37L152.327 152.128C152.409 152.358 152.409 152.605 152.31 152.835C152.212 153.066 152.031 153.23 151.801 153.312L141.963 157.112C141.865 157.162 141.75 157.178 141.634 157.178Z" fill="white"/>
<path d="M211.497 206.495L233.508 218.865L246.256 196.148L224.246 183.777L228.836 175.635L186.526 177.527L206.908 214.638L211.497 206.495Z" fill="#E5A755"/>
<path d="M211.497 192.447L233.508 204.801L246.256 182.1L224.246 169.73L228.836 161.57L186.526 163.479L206.908 200.59L211.497 192.447Z" fill="white"/>
<path d="M341.81 21.7816C345.755 17.8372 345.755 11.4421 341.81 7.49772C337.866 3.55334 331.471 3.55334 327.526 7.49771C323.582 11.4421 323.582 17.8372 327.526 21.7816C331.471 25.7259 337.866 25.7259 341.81 21.7816Z" fill="#3B82F4"/>
<path d="M10.4785 71.9999C16.0567 71.9999 20.5788 67.4779 20.5788 61.8996C20.5788 56.3214 16.0567 51.7993 10.4785 51.7993C4.90023 51.7993 0.378174 56.3214 0.378174 61.8996C0.378174 67.4779 4.90023 71.9999 10.4785 71.9999Z" fill="#3B82F4"/>
<path d="M165.454 367.919C168.952 367.919 171.787 365.083 171.787 361.586C171.787 358.088 168.952 355.252 165.454 355.252C161.956 355.252 159.121 358.088 159.121 361.586C159.121 365.083 161.956 367.919 165.454 367.919Z" fill="#3B82F4"/>
</svg>
